<?xml version="1.0" encoding="UTF-8"?>
<!-- (c) ammap.com | SVG map of Vatican City -->
<svg width="297mm" height="210mm" version="1.1" xmlns="http://www.w3.org/2000/svg">
 <defs>
  <style type="text/css">.land
                                   {
                                       fill: #CCCCCC;
                                       fill-opacity: 1;
                                       stroke:white;
                                       stroke-opacity: 1;
                                       stroke-width:0.5;
                                   }</style>
  <!-- All areas are listed in the line below. You can use this list in your script. -->
  <!--{id:"VA"}-->
 </defs>
 <path id="VA" class="land" d="m554.51 12.96 12.174 68.222 91.512 27.604-0.53876 54.758-2.3369 32.315-2.3805 51.84 0.53878 14.811 9.4791 5.16 8.3109 8.3038 9.4791 10.547 4.1787 7.1814 4.7165 16.382 1.5273 18.176-0.26888 5.3848-0.18 5.1609-1.9316 10.099-7.1889 14.137-14.6 15.26-13.522 6.9563-7.5476 2.4679-12.174 0.67417-14.286-3.142-12.265-5.1609-5.6148-5.386-5.706-4.7126-15.409 4.2636-18.824 6.7324-32.076 11.444-30.728 6.5073-11.23 4.0394-3.3699 4.7116 0.35982 6.5082 0.62875 13.464 6.1539 5.8341 0.49425 7.1805-2.9192 6.9566-4.7174 2.9171-9.3883-5.8341-45.644-16.381-0.4488 9.8735-6.1102-0.44914-72.598-10.098-25.427-4.0394-5.1663-9.4245-12.31-4.7117-22.596-2.4688-8.8952-4.0394-11.815-2.2447-13.612-1.7947-15.589 0.4482 0.58426 10.772-24.17 4.7126-16.89 1.5706-4.2686-4.0385-6.1102-6.9566 5.1217-4.7134 5.706-4.7116-15.05-13.015-16.083-12.342-11.277-7.6297-17.97-14.137-7.9509 10.099-23.091-12.566-17.027-6.284 54.717-30.743 19.992-12.566 4.0876-2.6929 6.5591-10.547 5.1217-15.934 3.8633-8.751 7.008-8.303 9.8847-7.6297 11.365-11.22 10.333-7.6306 6.1991-8.7519 4.0886-11.893 4.7165-26.93 4.3132-21.768 7.0535-4.7134 10.333-4.0385 12.354-5.386 15.005-13.466 12.668-17.055 9.0306-22.442 6.5582-17.056 45.195-5.3848 24.485 1.3455 7.5021-1.3455 33.468-11.67 13.747-4.0403 7.008 10.997 29.201-8.0787-1.3929-13.69 19.857-5.835z" title="Vatican City  (Holy See)"/>
 <g fill="#d4aa00">
  <circle id="sta" cx="388.81" cy="170.73" r="3" stroke-width=".3063">
   <title>Staré Zahrady</title>
  </circle>
  <circle id="nov" cx="325.27" cy="255.68" r="3" stroke-width=".35984">
   <title>Nové Zahrady</title>
  </circle>
  <ellipse id="baz" cx="477.52" cy="295.26" rx="3.0009" ry="3" stroke-width=".36091">
   <title>Bazilika Sv. Petra</title>
  </ellipse>
  <circle id="nam" cx="642.41" cy="328.25" r="6.8891" stroke-width=".97692">
   <title>Náměstí Sv. Petra</title>
  </circle>
  <circle id="muz" cx="581.72" cy="167.4" r="3" stroke-width=".34756">
   <title>Muzeum</title>
  </circle>
 </g>
</svg>
